<svg xmlns:rdf="http://www.w3.org/1999/02/22-rdf-syntax-ns#" xmlns:inkscape="http://www.inkscape.org/namespaces/inkscape" xmlns:cc="http://creativecommons.org/ns#" xmlns:dc="http://purl.org/dc/elements/1.1/" xmlns:sodipodi="http://sodipodi.sourceforge.net/DTD/sodipodi-0.dtd" xmlns:svg="http://www.w3.org/2000/svg"
     xmlns="http://www.w3.org/2000/svg" xmlns:xlink="http://www.w3.org/1999/xlink" version="1.1" x="0px" y="0px"
     fill="#e5e3e8" height="40" width="30" viewBox="0 0 100 125"  xml:space="preserve">
    <g><g>
    <path  d="M90.116,1H9.884C4.978,1,1,4.978,1,9.884v80.234C1,95.023,4.978,99,9.884,99h80.232
    C95.022,99,99,95.022,99,90.118V9.884C99,4.978,95.021,1,90.116,1z M22,84.5c-3.59,0-6.5-2.91-6.5-6.5s2.91-6.5,6.5-6.5
    c3.589,0,6.5,2.91,6.5,6.5S25.589,84.5,22,84.5z M22,56.5c-3.59,0-6.5-2.491-6.5-6.5c0-3.59,2.91-6.5,6.5-6.5
    c3.59,0,6.5,2.91,6.5,6.5C28.5,53.59,25.59,56.5,22,56.5z M22,28.5c-3.59,0-6.5-2.91-6.5-6.5s2.91-6.5,6.5-6.5s6.5,2.91,6.5,6.5
    S25.59,28.5,22,28.5z M78,84.5c-3.59,0-6.5-2.91-6.5-6.5s2.91-6.5,6.5-6.5s6.5,2.91,6.5,6.5S81.59,84.5,78,84.5z M78,56.5
    c-3.59,0-6.5-2.91-6.5-6.5c0-3.59,2.91-6.5,6.5-6.5s6.5,2.91,6.5,6.5C84.5,53.59,81.59,56.5,78,56.5z M78,28.5
    c-3.59,0-6.5-2.911-6.5-6.5c0-3.59,2.91-6.5,6.5-6.5s6.5,2.91,6.5,6.5C84.5,25.589,81.59,28.5,78,28.5z"/>
    </g></g></svg>