<?xml version="1.0" encoding="UTF-8" standalone="no"?>
<!-- Created with Inkscape (http://www.inkscape.org/) -->
<svg
   xmlns:svg="http://www.w3.org/2000/svg"
   xmlns="http://www.w3.org/2000/svg"
   version="1.0"
   width="30"
   height="30"
   viewBox="0 0 190 271"
   id="svg2211">
  <defs
     id="defs2214" />
  <path
     d="M 1.03519,269.18775 C 0.46584,268.12391 0,262.98932 0,257.77755 C 0,248.30366 0.00083,248.30056 3.82719,243.45985 C 10.67831,234.79254 24.12995,223.6211 36.500004,216.32544 C 40.350004,214.05477 50.250004,209.66557 58.500004,206.57167 C 84.482176,196.82786 97.549306,189.65886 110.20651,178.204 C 127.60894,162.45467 139.90066,137.6823 144.88848,108.30698 C 146.96679,96.066956 148.9459,64.00328 147.54301,65.300807 C 147.13936,65.674142 144.6887,70.892455 142.0971,76.897058 C 132.78389,98.475326 121.01097,116.92339 107.59165,130.9668 C 94.479824,144.68838 83.70636,150.7091 66.000004,154.21015 C 55.992479,156.18892 44.93241,162.24233 36.237006,170.50005 C 24.19325,181.93759 16.00319,195.68007 9.6402402,215.128 L 6.29447,225.35411 L 5.62534,220.98806 C 5.25732,218.58673 4.67961,210.54701 4.34154,203.12201 C 2.95266,172.61789 10.00464,145.75147 24.43163,126.5835 C 32.734534,115.55209 41.499182,108.70528 59.500004,99.188626 C 104.1296,75.59392 138.903,40.699458 146.60205,11.783337 C 147.35787,8.9446105 147.98161,5.4326605 147.98814,3.9790045 C 148.00017,1.3004075 149.87232,-0.23675449 151.65955,0.96453651 C 153.18244,1.9881565 165.3428,21.82891 169.22365,29.622016 C 177.09524,45.428853 183.77598,66.131557 187.13345,85.122016 C 188.89263,95.072266 191.01352,128.13064 189.89185,128.11739 C 189.67634,128.11484 186.80001,127.00052 183.50001,125.64112 C 174.66414,122.00129 161.61457,122.47688 155.64775,126.6562 C 153.94594,127.8482 154.29236,128.20153 159.64217,130.73028 C 166.77398,134.10134 174.88087,141.97998 178.43529,148.99429 C 180.88192,153.82249 184.72605,167.72931 183.85484,168.60051 C 183.64386,168.81149 180.55271,168.17803 176.98562,167.19282 C 167.86378,164.6734 159.88678,163.83436 156.67292,165.05627 L 153.96293,166.08661 L 156.90567,171.35431 C 162.38548,181.16353 163.50133,186.88837 163.48746,205.12201 C 163.48055,214.19701 163.14054,222.83535 162.73188,224.31833 L 161.98885,227.01464 L 156.10609,224.0959 C 128.98029,210.63738 91.524211,213.34986 55.500004,231.38154 C 37.214314,240.53433 23.41663,250.71107 14.07683,261.93397 C 6.48207,271.06001 3.05679,272.96515 1.03519,269.18775 z "

     id="path2220" />
</svg>
