<?xml version="1.0" encoding="utf-8"?>
<!-- Svg Vector Icons : http://www.onlinewebfonts.com/icon -->
<!DOCTYPE svg PUBLIC "-//W3C//DTD SVG 1.1//EN" "http://www.w3.org/Graphics/SVG/1.1/DTD/svg11.dtd">
<svg version="1.1" xmlns="http://www.w3.org/2000/svg" xmlns:xlink="http://www.w3.org/1999/xlink" x="0px" y="0px" height="28" width="28" viewBox="0 0 1000 1000" enable-background="new 0 0 1000 1000" xml:space="preserve">
<metadata> Svg Vector Icons : http://www.onlinewebfonts.com/icon </metadata>
<g><path d="M563.9,72.6c-231.7,0-420.1,185.6-425.8,416.8H10L201.7,703l191.7-213.7H244.6c5.6-172.1,146.4-309.9,319.3-309.9c176.5,0,319.6,143.5,319.6,320.6c0,177-143.1,320.6-319.6,320.6c-70.8,0-136.1-23.1-189.1-62.2l-73.3,78.4c72.3,56.8,163.4,90.6,262.4,90.6C799.2,927.4,990,736.1,990,500C990,263.9,799.2,72.6,563.9,72.6z"/></g>
</svg>